<svg width="44" height="44" viewBox="0 0 44 44" fill="none" xmlns="http://www.w3.org/2000/svg">
<path d="M37.3656 19.9375L34.375 16.9489V9.625C34.375 8.49062 33.4469 7.5625 32.3125 7.5625H30.25C29.1156 7.5625 28.1875 8.49062 28.1875 9.625V10.7656L24.0625 6.64469C23.4994 6.11256 22.9838 5.5 22 5.5C21.0162 5.5 20.5006 6.11256 19.9375 6.64469L6.63438 19.9375C5.99088 20.6078 5.5 21.0966 5.5 22C5.5 23.1612 6.391 24.0625 7.5625 24.0625H9.625V36.4375C9.625 37.5719 10.5531 38.5 11.6875 38.5H15.8125C16.9516 38.5 17.875 37.5766 17.875 36.4375V28.1875C17.875 27.0531 18.8031 26.125 19.9375 26.125H24.0625C25.1969 26.125 26.125 27.0531 26.125 28.1875V36.4375C26.125 37.5766 26.0172 38.5 27.1562 38.5H32.3125C33.4469 38.5 34.375 37.5719 34.375 36.4375V24.0625H36.4375C37.609 24.0625 38.5 23.1612 38.5 22C38.5 21.0966 38.0091 20.6078 37.3656 19.9375Z" stroke="black" stroke-width="2" stroke-linejoin="round"/>
</svg>
