<svg width="44" height="44" viewBox="0 0 44 44" fill="none" xmlns="http://www.w3.org/2000/svg">
  <g clip-path="url(#clip0_6_20)" transform="translate(4 4)">
    <path fill-rule="evenodd" clip-rule="evenodd" d="M20.5053 0.384043C21.2633 -0.0844878 22.21 -0.127081 23.0071 0.271476C29.0067 3.27127 31.922 8.50994 33.3296 13.4364C34.7145 18.2836 34.7143 23.0772 34.7143 25.6539V25.7143C34.7143 26.3962 34.4433 27.0504 33.9611 27.5325C33.479 28.0147 32.8248 28.2857 32.1429 28.2857H24.4286V33.4286C24.4286 34.8488 23.2773 36 21.8571 36C20.437 36 19.2857 34.8488 19.2857 33.4286V2.57143C19.2857 1.68023 19.7472 0.852575 20.5053 0.384043ZM2.57142 0.642857C3.63654 0.642857 4.5 1.50631 4.5 2.57143V9C4.5 10.1935 4.97409 11.3381 5.81801 12.182C6.1857 12.5497 6.61042 12.8471 7.07142 13.0658V2.57143C7.07142 1.50631 7.93488 0.642857 9 0.642857C10.0651 0.642857 10.9286 1.50631 10.9286 2.57143V13.0658C11.3934 12.8453 11.8174 12.5465 12.182 12.182C12.5998 11.7641 12.9313 11.2681 13.1575 10.7221C13.3836 10.1761 13.5 9.59094 13.5 9V2.57143C13.5 1.50631 14.3635 0.642857 15.4286 0.642857C16.4937 0.642857 17.3571 1.50631 17.3571 2.57143V9C17.3571 10.0975 17.141 11.1842 16.721 12.1981C16.301 13.2121 15.6854 14.1334 14.9094 14.9094C14.1334 15.6854 13.2121 16.301 12.1981 16.721C11.9921 16.8063 11.783 16.8833 11.5714 16.9517V33.4286C11.5714 34.8488 10.4201 36 9 36C7.57985 36 6.42857 34.8488 6.42857 33.4286V16.9517C5.18142 16.5484 4.0347 15.8535 3.0906 14.9094C1.52334 13.3421 0.642853 11.2164 0.642853 9V2.57143C0.642853 1.50631 1.5063 0.642857 2.57142 0.642857Z" fill="none" stroke="black" stroke-width="1.5" stroke-linecap="round" stroke-linejoin="round"/>
  </g>
  <defs>
    <clipPath id="clip0_6_20">
      <rect width="36" height="36" fill="white"/>
    </clipPath>
  </defs>
</svg>
