<svg width="44" height="44" viewBox="0 0 44 44" fill="none" xmlns="http://www.w3.org/2000/svg">
<path d="M16.1542 38.9485L21.9986 33.1042M21.9986 33.1042L27.8429 38.9485M21.9986 33.1042V10.8958M27.8429 5.05149L21.9986 10.8958M21.9986 10.8958L16.1542 5.05149M4.39999 25.413L12.3835 27.5522M12.3835 27.5522L10.2443 35.5356M12.3835 27.5522L31.6165 16.448M39.6 18.5871L31.6165 16.448M31.6165 16.448L33.7557 8.46448M10.2443 8.46448L12.3835 16.448M12.3835 16.448L4.4 18.5871M12.3835 16.448L31.6165 27.5522M33.7557 35.5356L31.6165 27.5522M31.6165 27.5522L39.6 25.413" stroke="black" stroke-width="2" stroke-linecap="round" stroke-linejoin="round"/>
</svg>
